<?xml version="1.0" encoding="UTF-8" standalone="no"?>
<svg
   viewBox="0 0 448 512"
   version="1.1"
   id="svg4"
   sodipodi:docname="bars-solid.svg"
   inkscape:version="1.1.1 (3bf5ae0d25, 2021-09-20)"
   xmlns:inkscape="http://www.inkscape.org/namespaces/inkscape"
   xmlns:sodipodi="http://sodipodi.sourceforge.net/DTD/sodipodi-0.dtd"
   xmlns="http://www.w3.org/2000/svg"
   xmlns:svg="http://www.w3.org/2000/svg">
  <defs
     id="defs8" />
  <sodipodi:namedview
     id="namedview6"
     pagecolor="#ffffff"
     bordercolor="#666666"
     borderopacity="1.0"
     inkscape:pageshadow="2"
     inkscape:pageopacity="0.0"
     inkscape:pagecheckerboard="0"
     showgrid="false"
     inkscape:zoom="1.5"
     inkscape:cx="224"
     inkscape:cy="256.33333"
     inkscape:window-width="1280"
     inkscape:window-height="953"
     inkscape:window-x="-8"
     inkscape:window-y="-8"
     inkscape:window-maximized="1"
     inkscape:current-layer="svg4" />
  <!--! Font Awesome Pro 6.1.1 by @fontawesome - https://fontawesome.com License - https://fontawesome.com/license (Commercial License) Copyright 2022 Fonticons, Inc. -->
  <path
     d="M0 96C0 78.33 14.33 64 32 64H416C433.7 64 448 78.33 448 96C448 113.7 433.7 128 416 128H32C14.33 128 0 113.7 0 96zM0 256C0 238.3 14.33 224 32 224H416C433.7 224 448 238.3 448 256C448 273.7 433.7 288 416 288H32C14.33 288 0 273.7 0 256zM416 448H32C14.33 448 0 433.7 0 416C0 398.3 14.33 384 32 384H416C433.7 384 448 398.3 448 416C448 433.7 433.7 448 416 448z"
     id="path2" />
  <path
     style="fill:#ffffff;stroke-width:0.666667"
     d="M 24.408217,446.61297 C 7.6598967,442.10878 -2.8476923,424.82625 1.3541281,408.69437 4.3490123,397.19623 13.234579,388.33902 24.795532,385.32778 28.137745,384.45724 52.958918,384.33333 224,384.33333 c 173.29514,0 195.82965,0.11542 199.30563,1.0208 16.9157,4.40598 27.5788,21.67858 23.36659,37.85034 -3.01125,11.56095 -11.86845,20.44652 -23.36659,23.4414 -3.47794,0.90589 -25.94758,1.01586 -199.61236,0.97692 -168.689679,-0.0378 -196.188898,-0.17716 -199.285053,-1.00982 z"
     id="path936" />
  <path
     style="fill:#ffffff;stroke-width:0.666667"
     d="M 24.408217,286.61297 C 7.6598967,282.10878 -2.8476923,264.82625 1.3541281,248.69437 4.3490123,237.19623 13.234579,228.33902 24.795532,225.32778 28.137745,224.45724 52.958918,224.33333 224,224.33333 c 173.29514,0 195.82965,0.11542 199.30563,1.0208 16.9157,4.40598 27.5788,21.67858 23.36659,37.85034 -3.01125,11.56095 -11.86845,20.44652 -23.36659,23.4414 -3.47794,0.90589 -25.94758,1.01586 -199.61236,0.97692 -168.689679,-0.0378 -196.188898,-0.17716 -199.285053,-1.00982 z"
     id="path975" />
  <path
     style="fill:#ffffff;stroke-width:0.666667"
     d="M 24.408217,126.61297 C 7.6598967,122.10878 -2.8476923,104.82625 1.3541281,88.694369 4.3490123,77.196233 13.234579,68.339024 24.795532,65.327779 28.137745,64.457243 52.958918,64.333333 224,64.333333 c 173.29514,0 195.82965,0.115417 199.30563,1.020795 16.9157,4.405981 27.5788,21.678583 23.36659,37.850342 -3.01125,11.56095 -11.86845,20.44652 -23.36659,23.4414 -3.47794,0.90589 -25.94758,1.01586 -199.61236,0.97692 -168.689679,-0.0378 -196.188898,-0.17716 -199.285053,-1.00982 z"
     id="path1014" />
</svg>
